<svg xmlns="http://www.w3.org/2000/svg" xmlns:xlink="http://www.w3.org/1999/xlink" width="336" height="336" viewBox="0 0 336 336">
  <defs>
    <clipPath id="clip-path">
      <rect id="Rectángulo_3353" data-name="Rectángulo 3353" width="336" height="336" transform="translate(-11367 -12007)" fill="none" stroke="#707070" stroke-width="1"/>
    </clipPath>
  </defs>
  <g id="favicon-magro" transform="translate(11367 12007)" clip-path="url(#clip-path)">
    <g id="logo-horizontal-magro" transform="translate(-11367 -11966.788)">
      <g id="Grupo_4275" data-name="Grupo 4275" transform="translate(0 0)">
        <path id="Trazado_8328" data-name="Trazado 8328" d="M133.7,132.521a171.513,171.513,0,0,0-90.41-25.886,10.588,10.588,0,0,0,0,21.176,148.033,148.033,0,0,1,74.26,19.665,191.843,191.843,0,0,1,16.15-14.956" transform="translate(24.251 -32.39)" fill="#367a00"/>
        <path id="Trazado_8329" data-name="Trazado 8329" d="M213.876,104.809A173.939,173.939,0,0,0,98.769,148.28c-3.34,2.943-6.545,6.073-9.67,9.283a158.433,158.433,0,0,1,16.492,13.36q3.49-3.5,7.183-6.758a152.762,152.762,0,0,1,101.1-38.18,10.588,10.588,0,0,0,0-21.176" transform="translate(66.079 -33.744)" fill="#85bd0c"/>
        <path id="Trazado_8330" data-name="Trazado 8330" d="M136.929,180.026A99.223,99.223,0,0,0,9.942,163.608,10.588,10.588,0,0,0,21.433,181.4a78.009,78.009,0,0,1,106.112,20.727,156.832,156.832,0,0,1,9.384-22.1" transform="translate(3.781 -1.881)" fill="#85bd0c"/>
        <path id="Trazado_8331" data-name="Trazado 8331" d="M161.714,164.586A136.063,136.063,0,0,0,5.777,141.471,10.588,10.588,0,1,0,15.4,160.333a114.9,114.9,0,0,1,133.442,21.279,158.3,158.3,0,0,1,12.869-17.026" transform="translate(0 -17.528)" fill="#367a00"/>
        <path id="Trazado_8332" data-name="Trazado 8332" d="M114.316,257.66a10.588,10.588,0,0,1-10.587-10.587,99.359,99.359,0,0,1,132.789-93.508,10.588,10.588,0,0,1-7.141,19.937A78.183,78.183,0,0,0,124.9,247.073a10.588,10.588,0,0,1-10.587,10.587" transform="translate(76.929 -1.881)" fill="#85bd0c"/>
        <path id="Trazado_8333" data-name="Trazado 8333" d="M93.217,273.308A10.588,10.588,0,0,1,82.63,262.72c0-75.017,61.028-136.047,136.044-136.047a135.456,135.456,0,0,1,49.2,9.171,10.588,10.588,0,0,1-7.662,19.742A114.946,114.946,0,0,0,103.8,262.72a10.588,10.588,0,0,1-10.587,10.587" transform="translate(61.282 -17.529)" fill="#367a00"/>
        <path id="Trazado_8334" data-name="Trazado 8334" d="M118.787,109.04,132.68,95.147c8.924-8.924,6.421-24.216-5.08-29.411-.157-.07-.312-.141-.469-.209-11.9-5.275-25.248,3.849-25.248,16.863v18.742a32.37,32.37,0,0,1,16.9,7.909" transform="translate(75.56 -64.005)" fill="#85bd0c"/>
        <path id="Trazado_8335" data-name="Trazado 8335" d="M94.937,109.04a32.37,32.37,0,0,1,16.9-7.909V82.389c0-13.013-13.351-22.138-25.249-16.863-.157.068-.313.139-.468.209-11.5,5.2-14,20.487-5.08,29.411Z" transform="translate(56.114 -64.005)" fill="#ff9429"/>
        <path id="Trazado_8336" data-name="Trazado 8336" d="M157.625,95.487c-.052-.157-.106-.313-.158-.47a17.332,17.332,0,0,0-28.652-6.671l-13.722,13.721a32.329,32.329,0,0,1,4.76,16.3h21.361a17.342,17.342,0,0,0,16.411-22.878" transform="translate(85.357 -49.719)" fill="#ff682c"/>
        <path id="Trazado_8337" data-name="Trazado 8337" d="M101.726,102.068,88,88.346a17.33,17.33,0,0,0-28.65,6.67c-.054.157-.108.313-.16.47a17.344,17.344,0,0,0,16.411,22.88H96.966a32.337,32.337,0,0,1,4.76-16.3" transform="translate(43.224 -49.719)" fill="#5653d3"/>
      </g>
    </g>
  </g>
</svg>
