<svg xmlns="http://www.w3.org/2000/svg" xmlns:xlink="http://www.w3.org/1999/xlink" width="50" height="50" viewBox="0 0 50 50">
  <defs>
    <clipPath id="clip-path">
      <rect id="Rect치ngulo_3312" data-name="Rect치ngulo 3312" width="50" height="50" transform="translate(-5164 -11580)" fill="#fff" stroke="#707070" stroke-width="1"/>
    </clipPath>
    <clipPath id="clip-path-2">
      <rect id="Rect치ngulo_2951" data-name="Rect치ngulo 2951" width="32.21" height="45.187" fill="#5653d3"/>
    </clipPath>
  </defs>
  <g id="icon-ingredientes" transform="translate(5164 11580)" clip-path="url(#clip-path)">
    <g id="Grupo_9709" data-name="Grupo 9709" transform="translate(-5155.104 -11577.519)">
      <g id="Grupo_9365" data-name="Grupo 9365" clip-path="url(#clip-path-2)">
        <path id="Trazado_12671" data-name="Trazado 12671" d="M22.52,0a1.182,1.182,0,0,1,.657,1.18,3.7,3.7,0,0,1-1.006,2.862,2.365,2.365,0,0,0-.616,1.7c0,2.044-.01,4.089,0,6.133a11.388,11.388,0,0,0,.918,4.282c3.115,7.578,6.188,15.173,9.345,22.733a4.431,4.431,0,0,1-3.273,6.235.393.393,0,0,0-.115.061H3.808a11.178,11.178,0,0,1-1.7-.67A4.2,4.2,0,0,1,.265,39.433c.962-2.538,2.03-5.036,3.059-7.549Q6.555,24,9.795,16.12a11.7,11.7,0,0,0,.9-4.593c-.016-1.9-.01-3.793,0-5.69A2.556,2.556,0,0,0,10,3.944,3.768,3.768,0,0,1,9.1.792C9.132.385,9.43.2,9.722,0ZM2.453,38.662c.259,0,.449,0,.639,0,.637.016,1.051.374,1.043.9s-.419.859-1.066.866c-.42,0-.84,0-1.248,0A2.61,2.61,0,0,0,4.571,43.42q11.56.007,23.119,0a3.163,3.163,0,0,0,.994-.151A2.594,2.594,0,0,0,30.19,39.6q-3.226-7.888-6.46-15.771a.5.5,0,0,0-.552-.358c-3.309.011-6.618.007-9.927.007-1.412,0-2.824,0-4.236.005-.128,0-.335.042-.372.125-.337.758-.644,1.529-.98,2.344.319,0,.569-.016.817,0a.883.883,0,0,1,.895.9.871.871,0,0,1-.93.857c-.411.013-.824-.006-1.235.011-.111,0-.281.063-.317.143-.329.75-.634,1.51-.953,2.287a8.77,8.77,0,0,1,1,.094.836.836,0,0,1,.658.872.869.869,0,0,1-.741.813,3.494,3.494,0,0,1-.528.02c-1.13,0-1.13,0-1.565,1.066l-.576,1.408c.3,0,.506-.012.709,0a.915.915,0,0,1,.926.878.9.9,0,0,1-.962.88c-.382.011-.766-.013-1.147.012a.445.445,0,0,0-.33.194c-.316.724-.606,1.46-.936,2.268M10.733,1.784A7.326,7.326,0,0,0,11.354,2.8,4.479,4.479,0,0,1,12.46,5.876c0,1.926,0,3.852,0,5.778a11.94,11.94,0,0,1-.768,4.4c-.682,1.734-1.394,3.457-2.093,5.184-.057.142-.107.287-.168.45h13.4c-.072-.185-.127-.334-.188-.481q-.918-2.241-1.836-4.482a11.551,11.551,0,0,1-.962-4.095c-.049-2.072-.015-4.145-.063-6.217a5.077,5.077,0,0,1,1.306-3.848,2.878,2.878,0,0,0,.366-.784Z" transform="translate(-0.001)" fill="#5653d3"/>
        <path id="Trazado_12672" data-name="Trazado 12672" d="M244.2,316.33a1.032,1.032,0,0,1,.952.769c.756,1.86,1.522,3.716,2.285,5.574.239.583.484,1.164.715,1.75a.912.912,0,0,1-.424,1.3c-.5.2-.955-.036-1.206-.642Q245,321.4,243.5,317.718c-.3-.723.066-1.382.7-1.388" transform="translate(-221.912 -288.412)" fill="#5653d3"/>
        <path id="Trazado_12673" data-name="Trazado 12673" d="M293.98,439.831a.866.866,0,0,1-.862-.872.884.884,0,0,1,.853-.887.919.919,0,0,1,.9.9.9.9,0,0,1-.89.858" transform="translate(-267.249 -399.41)" fill="#5653d3"/>
      </g>
    </g>
  </g>
</svg>
