<svg xmlns="http://www.w3.org/2000/svg" xmlns:xlink="http://www.w3.org/1999/xlink" width="50" height="50" viewBox="0 0 50 50">
  <defs>
    <clipPath id="clip-path">
      <rect id="Rect치ngulo_3310" data-name="Rect치ngulo 3310" width="50" height="50" transform="translate(-5310 -11580)" fill="#fff" stroke="#707070" stroke-width="1"/>
    </clipPath>
    <clipPath id="clip-path-2">
      <rect id="Rect치ngulo_2958" data-name="Rect치ngulo 2958" width="37.895" height="40.225" fill="#5653d3"/>
    </clipPath>
  </defs>
  <g id="icon-descarga-pdf" transform="translate(5310 11580)" clip-path="url(#clip-path)">
    <g id="Grupo_9711" data-name="Grupo 9711" transform="translate(-5303.947 -11575.038)">
      <g id="Grupo_9371" data-name="Grupo 9371" transform="translate(0)" clip-path="url(#clip-path-2)">
        <path id="Trazado_12675" data-name="Trazado 12675" d="M11.246,40.225a3.5,3.5,0,0,1-1.858-.939,3.259,3.259,0,0,1-.89-2.359q0-3.142,0-6.283V30.17H8.055q-2.749,0-5.5,0A2.338,2.338,0,0,1,0,27.606q0-5.557,0-11.113A2.354,2.354,0,0,1,2.595,13.92q2.71,0,5.419,0H8.5v-.475q0-5.085,0-10.171A3.092,3.092,0,0,1,10.825.122,3.638,3.638,0,0,1,11.756.01Q19.2,0,26.639,0a1.253,1.253,0,0,1,.967.421q4.909,5.113,9.832,10.212a1.486,1.486,0,0,1,.456,1.114q-.015,12.566,0,25.132a3.112,3.112,0,0,1-1.769,3.03,6.925,6.925,0,0,1-.916.318ZM10.076,30.17c-.009.109-.018.172-.018.235q0,3.338,0,6.677a1.743,1.743,0,0,0,.057.464,1.572,1.572,0,0,0,1.719,1.125h22.7a1.587,1.587,0,0,0,1.811-1.8q0-12.018,0-24.036c0-.139-.013-.277-.022-.452H26.75c-1.048,0-1.225-.18-1.225-1.241q0-4.536,0-9.073v-.49c-.168-.008-.3-.02-.422-.02q-6.637,0-13.275,0a1.571,1.571,0,0,0-1.771,1.794q0,5.066,0,10.133v.434h.528q6.166,0,12.333,0a2.378,2.378,0,0,1,2.607,2.61q0,5.518,0,11.036a2.369,2.369,0,0,1-2.608,2.6H10.076Zm2.681-1.554H22.887c.856,0,1.085-.234,1.086-1.1q0-5.477,0-10.953c0-.839-.241-1.084-1.067-1.084H2.608c-.824,0-1.067.245-1.067,1.085q0,5.477,0,10.953c0,.866.233,1.1,1.089,1.1H12.758M35.472,10.827l-8.378-8.7v8.7Z" transform="translate(-0.001 0)" fill="#5653d3"/>
        <path id="Trazado_12676" data-name="Trazado 12676" d="M109.048,198.683V192.2c.029-.028.048-.062.066-.061,1.111.014,2.228-.033,3.331.067a2.217,2.217,0,0,1,1.929,1.729,4.659,4.659,0,0,1-.142,3.372,2.105,2.105,0,0,1-1.784,1.359c-1.115.084-2.241.021-3.4.021m1.36-5.394v4.318c.532,0,1.04.031,1.542-.008a1.091,1.091,0,0,0,1.139-1.031,8.871,8.871,0,0,0,.062-1.944,1.288,1.288,0,0,0-1.159-1.325,14.837,14.837,0,0,0-1.584-.011" transform="translate(-98.319 -173.231)" fill="#5653d3"/>
        <path id="Trazado_12677" data-name="Trazado 12677" d="M47.754,195.994V198.5h-1.3v-6.635c.252,0,.5,0,.74,0,.889.019,1.78.016,2.666.071a1.661,1.661,0,0,1,1.558,1.328,2.036,2.036,0,0,1-2.072,2.728c-.507.015-1.016,0-1.589,0m.034-1.079c.568-.04,1.115-.047,1.651-.126a.824.824,0,0,0,.683-.843.848.848,0,0,0-.732-.887c-.525-.052-1.059-.012-1.6-.012Z" transform="translate(-41.88 -172.986)" fill="#5653d3"/>
        <path id="Trazado_12678" data-name="Trazado 12678" d="M182.119,192.188v1.1h-3.167v1.575h2.706v1.11h-2.724v2.821h-1.317v-6.6Z" transform="translate(-160.141 -173.279)" fill="#5653d3"/>
      </g>
    </g>
  </g>
</svg>
