<svg xmlns="http://www.w3.org/2000/svg" xmlns:xlink="http://www.w3.org/1999/xlink" width="50" height="50" viewBox="0 0 50 50">
  <defs>
    <clipPath id="clip-path">
      <rect id="Rect치ngulo_3311" data-name="Rect치ngulo 3311" width="50" height="50" transform="translate(-5237 -11580)" fill="#fff" stroke="#707070" stroke-width="1"/>
    </clipPath>
    <clipPath id="clip-path-2">
      <rect id="Rect치ngulo_2952" data-name="Rect치ngulo 2952" width="42.651" height="42.246" fill="#5653d3"/>
    </clipPath>
  </defs>
  <g id="icon-formula" transform="translate(5237 11580)" clip-path="url(#clip-path)">
    <g id="Grupo_9710" data-name="Grupo 9710" transform="translate(-5233.325 -11576.048)">
      <g id="Grupo_9368" data-name="Grupo 9368" clip-path="url(#clip-path-2)">
        <path id="Trazado_12674" data-name="Trazado 12674" d="M4.214,23.662a3.516,3.516,0,0,1,0-5.1L1.55,13.949c-.455-.789-.9-1.583-1.37-2.364a1.039,1.039,0,0,1-.006-1.16Q3.032,5.5,5.873.555A1.022,1.022,0,0,1,6.85,0q5.682.01,11.365,0a1.113,1.113,0,0,1,1.053.65C21,3.673,22.751,6.689,24.485,9.714a.693.693,0,0,0,.693.412c3.475-.015,6.95,0,10.425-.017a1.3,1.3,0,0,1,1.276.725q2.749,4.821,5.546,9.614a1.2,1.2,0,0,1,0,1.35c-1.3,2.21-2.563,4.435-3.853,6.648a.452.452,0,0,0,.039.624,3.377,3.377,0,0,1,.013,4.326.481.481,0,0,0-.042.66q1.933,3.32,3.84,6.656a1.547,1.547,0,0,1,.23.714.786.786,0,0,1-.584.762.811.811,0,0,1-.926-.256,2.646,2.646,0,0,1-.276-.43c-1.268-2.193-2.54-4.383-3.793-6.584a.492.492,0,0,0-.6-.283,3.375,3.375,0,0,1-3.715-2.15.466.466,0,0,0-.515-.366q-3.568.021-7.135,0a.6.6,0,0,0-.591.364c-1.736,3.023-3.488,6.037-5.217,9.065a1.228,1.228,0,0,1-1.2.7q-5.554-.026-11.109,0a1.23,1.23,0,0,1-1.2-.693Q3.034,36.734.24,31.94a1.226,1.226,0,0,1-.006-1.387C1.5,28.394,2.745,26.219,4,24.05c.071-.123.139-.247.218-.389m5.765-3.425c.033,0,.131.013.23.013,1.552,0,3.1.008,4.655-.015.116,0,.278-.2.334-.334a3.445,3.445,0,0,1,3.756-2.178.427.427,0,0,0,.531-.248q1.766-3.094,3.562-6.171a.523.523,0,0,0,0-.613q-2.5-4.3-4.97-8.61a.568.568,0,0,0-.563-.341q-4.975.017-9.95,0a.535.535,0,0,0-.533.316Q4.54,6.387,2.033,10.7a.5.5,0,0,0-.009.581q1.8,3.1,3.584,6.208a.4.4,0,0,0,.471.226,3.282,3.282,0,0,1,3.142,1.24,10.668,10.668,0,0,1,.758,1.279m9.327,4.243A3.472,3.472,0,0,1,15.152,22.2a.461.461,0,0,0-.35-.2c-1.537-.013-3.075,0-4.612-.014a.362.362,0,0,0-.394.282A3.373,3.373,0,0,1,6.1,24.525a.45.45,0,0,0-.524.28q-1.759,3.073-3.543,6.133a.532.532,0,0,0,.007.618q2.5,4.3,4.97,8.61a.565.565,0,0,0,.565.337q4.954-.016,9.907,0a.6.6,0,0,0,.6-.357q2.463-4.293,4.95-8.572a.591.591,0,0,0-.017-.688Q21.274,27.9,19.553,24.9c-.084-.146-.169-.291-.247-.424m10.813-12.6c-1.666,0-3.332.006-5-.007a.53.53,0,0,0-.534.309q-1.769,3.094-3.563,6.173a.434.434,0,0,0,.061.589,3.383,3.383,0,0,1,.013,4.328.456.456,0,0,0-.065.625q1.79,3.057,3.542,6.136a.56.56,0,0,0,.566.328q3.546-.019,7.092,0a.461.461,0,0,0,.517-.358,3.374,3.374,0,0,1,3.79-2.148c.289.048.4-.07.525-.289q1.75-3.056,3.522-6.1a.6.6,0,0,0,.006-.7Q38.1,16.5,35.644,12.2a.559.559,0,0,0-.569-.324c-1.652.013-3.3.006-4.956.006M8.253,21.114a1.7,1.7,0,1,0-1.707,1.707,1.7,1.7,0,0,0,1.707-1.707M35.934,32.929a1.689,1.689,0,1,0-1.684-1.684,1.686,1.686,0,0,0,1.684,1.684M20.124,21.123a1.7,1.7,0,1,0-1.721,1.7,1.715,1.715,0,0,0,1.721-1.7" transform="translate(0 0)" fill="#5653d3"/>
      </g>
    </g>
  </g>
</svg>
