<svg xmlns="http://www.w3.org/2000/svg" xmlns:xlink="http://www.w3.org/1999/xlink" width="50" height="50" viewBox="0 0 50 50">
  <defs>
    <clipPath id="clip-path">
      <rect id="Rectángulo_3331" data-name="Rectángulo 3331" width="50" height="50" transform="translate(-902 -10597)" fill="#fff" stroke="#707070" stroke-width="1"/>
    </clipPath>
  </defs>
  <g id="icon-direccion" transform="translate(902 10597)" clip-path="url(#clip-path)">
    <g id="Icon_feather-map-pin" data-name="Icon feather-map-pin" transform="translate(-896 -10595)">
      <path id="Trazado_12495" data-name="Trazado 12495" d="M22.036.25A18.786,18.786,0,0,1,40.822,19.036a21.485,21.485,0,0,1-2.874,10.27A39.871,39.871,0,0,1,31.832,37.5a57.205,57.205,0,0,1-8.807,7.578,1.783,1.783,0,0,1-1.979,0A57.2,57.2,0,0,1,12.24,37.5a39.871,39.871,0,0,1-6.116-8.195A21.485,21.485,0,0,1,3.25,19.036,18.786,18.786,0,0,1,22.036.25Zm0,41.154c3.521-2.6,15.219-12.033,15.219-22.368a15.219,15.219,0,0,0-30.438,0C6.817,29.37,18.514,38.8,22.036,41.4Z" transform="translate(-3.25 -0.25)" fill="#fff"/>
      <path id="Trazado_12496" data-name="Trazado 12496" d="M19.7,9.25A7.451,7.451,0,1,1,12.25,16.7,7.459,7.459,0,0,1,19.7,9.25Zm0,11.335A3.884,3.884,0,1,0,15.817,16.7,3.888,3.888,0,0,0,19.7,20.585Z" transform="translate(-0.915 2.085)" fill="#fff"/>
    </g>
  </g>
</svg>
