<svg xmlns="http://www.w3.org/2000/svg" xmlns:xlink="http://www.w3.org/1999/xlink" width="50" height="50" viewBox="0 0 50 50">
  <defs>
    <clipPath id="clip-path">
      <rect id="Rectángulo_3332" data-name="Rectángulo 3332" width="50" height="50" transform="translate(-814 -10597)" fill="#fff" stroke="#707070" stroke-width="1"/>
    </clipPath>
  </defs>
  <g id="icon-telefono" transform="translate(814 10597)" clip-path="url(#clip-path)">
    <path id="Icon_feather-phone" data-name="Icon feather-phone" d="M35.142,40.343c-.159,0-.319-.007-.477-.022l-.032,0A36.744,36.744,0,0,1,18.694,34.65,36.291,36.291,0,0,1,7.61,23.567,36.74,36.74,0,0,1,1.942,7.553l0-.028A5.3,5.3,0,0,1,7.211,1.75h5.31a5.3,5.3,0,0,1,5.246,4.557l0,.016A20.815,20.815,0,0,0,18.9,10.872a5.312,5.312,0,0,1-1.194,5.586l-.007.007-1.246,1.246a26.359,26.359,0,0,0,8.024,8.024l1.246-1.246.007-.007a5.3,5.3,0,0,1,5.59-1.192,20.806,20.806,0,0,0,4.545,1.132l.016,0a5.3,5.3,0,0,1,4.557,5.354v5.249a5.3,5.3,0,0,1-5.3,5.316ZM35,36.77a1.732,1.732,0,0,0,1.874-1.733s0,0,0-.007V29.757q0-.022,0-.044a1.732,1.732,0,0,0-1.482-1.757,24.388,24.388,0,0,1-5.32-1.326,1.731,1.731,0,0,0-1.828.385l-2.228,2.228a1.783,1.783,0,0,1-2.143.289A29.919,29.919,0,0,1,12.658,18.318a1.783,1.783,0,0,1,.289-2.143l2.228-2.228a1.737,1.737,0,0,0,.387-1.824A24.4,24.4,0,0,1,14.234,6.8a1.74,1.74,0,0,0-1.713-1.483H7.213A1.732,1.732,0,0,0,5.491,7.193a33.155,33.155,0,0,0,5.117,14.441l.008.013a32.7,32.7,0,0,0,10,10l.014.009A33.162,33.162,0,0,0,35,36.77Z" transform="translate(-810.918 -10592.75)" fill="#fff"/>
  </g>
</svg>
