<svg id="logo-horizontal-magro-blanco" xmlns="http://www.w3.org/2000/svg" width="159" height="30.985" viewBox="0 0 159 30.985">
  <g id="Grupo_4275" data-name="Grupo 4275" transform="translate(0 0)">
    <path id="Trazado_8328" data-name="Trazado 8328" d="M44.934,109.771a20.777,20.777,0,0,0-10.952-3.136,1.283,1.283,0,0,0,0,2.565,17.932,17.932,0,0,1,9,2.382,23.236,23.236,0,0,1,1.956-1.812" transform="translate(-25.8 -97.641)" fill="#fff"/>
    <path id="Trazado_8329" data-name="Trazado 8329" d="M104.214,104.809a21.071,21.071,0,0,0-13.944,5.266c-.4.357-.793.736-1.171,1.125a19.193,19.193,0,0,1,2,1.618q.423-.424.87-.819a18.505,18.505,0,0,1,12.247-4.625,1.283,1.283,0,0,0,0-2.565" transform="translate(-70.301 -96.2)" fill="#fff"/>
    <path id="Trazado_8330" data-name="Trazado 8330" d="M21.067,151.68a12.02,12.02,0,0,0-15.383-1.989,1.283,1.283,0,0,0,1.392,2.155,9.45,9.45,0,0,1,12.854,2.511,19,19,0,0,1,1.137-2.677" transform="translate(-4.022 -130.1)" fill="#fff"/>
    <path id="Trazado_8331" data-name="Trazado 8331" d="M19.589,131.267a16.482,16.482,0,0,0-18.89-2.8,1.283,1.283,0,1,0,1.166,2.285,13.919,13.919,0,0,1,16.165,2.578,19.176,19.176,0,0,1,1.559-2.063" transform="translate(0 -113.452)" fill="#fff"/>
    <path id="Trazado_8332" data-name="Trazado 8332" d="M105.012,161.084a1.283,1.283,0,0,1-1.283-1.283,12.036,12.036,0,0,1,16.086-11.327,1.283,1.283,0,0,1-.865,2.415,9.471,9.471,0,0,0-12.656,8.912,1.283,1.283,0,0,1-1.283,1.283" transform="translate(-81.844 -130.099)" fill="#fff"/>
    <path id="Trazado_8333" data-name="Trazado 8333" d="M83.913,144.436a1.283,1.283,0,0,1-1.283-1.283,16.489,16.489,0,0,1,22.44-15.37,1.283,1.283,0,0,1-.928,2.391A13.924,13.924,0,0,0,85.2,143.154a1.283,1.283,0,0,1-1.283,1.283" transform="translate(-65.197 -113.451)" fill="#fff"/>
    <path id="Trazado_8334" data-name="Trazado 8334" d="M103.931,69.461l1.683-1.683A2.2,2.2,0,0,0,105,64.215l-.057-.025a2.2,2.2,0,0,0-3.059,2.043V68.5a3.921,3.921,0,0,1,2.048.958" transform="translate(-80.388 -64.005)" fill="#fff"/>
    <path id="Trazado_8335" data-name="Trazado 8335" d="M78,69.461a3.921,3.921,0,0,1,2.048-.958v-2.27a2.2,2.2,0,0,0-3.059-2.043l-.057.025a2.2,2.2,0,0,0-.615,3.563Z" transform="translate(-59.699 -64.005)" fill="#fff"/>
    <path id="Trazado_8336" data-name="Trazado 8336" d="M120.245,84.749l-.019-.057a2.1,2.1,0,0,0-3.471-.808l-1.662,1.662a3.916,3.916,0,0,1,.577,1.974h2.588a2.1,2.1,0,0,0,1.988-2.771" transform="translate(-90.811 -79.204)" fill="#fff"/>
    <path id="Trazado_8337" data-name="Trazado 8337" d="M63.544,85.546l-1.662-1.662a2.1,2.1,0,0,0-3.471.808l-.019.057A2.1,2.1,0,0,0,60.38,87.52h2.588a3.917,3.917,0,0,1,.577-1.974" transform="translate(-45.985 -79.205)" fill="#fff"/>
    <path id="Trazado_8338" data-name="Trazado 8338" d="M241.188,112.418a1.69,1.69,0,0,1-1.421-.594,2.35,2.35,0,0,1-.464-1.493V94.56a4.355,4.355,0,0,1,.667-2.494,2.226,2.226,0,0,1,1.971-.985,2.72,2.72,0,0,1,1.942.739,8.352,8.352,0,0,1,1.623,2.8l4.9,12.031h.058l4.986-12.089a8.333,8.333,0,0,1,1.609-2.755,2.7,2.7,0,0,1,1.927-.724,2.164,2.164,0,0,1,1.942.971,4.491,4.491,0,0,1,.638,2.508v15.771a2.353,2.353,0,0,1-.464,1.493,1.691,1.691,0,0,1-1.421.594,1.656,1.656,0,0,1-1.391-.594,2.352,2.352,0,0,1-.464-1.493V98.184h-.057L253.1,109.142a11.47,11.47,0,0,1-1.29,2.493,1.712,1.712,0,0,1-1.377.783,1.68,1.68,0,0,1-1.363-.768,12.986,12.986,0,0,1-1.334-2.508L243.1,98.184h-.058v12.147a2.355,2.355,0,0,1-.464,1.493,1.657,1.657,0,0,1-1.391.594" transform="translate(-188.815 -85.369)" fill="#fff"/>
    <path id="Trazado_8339" data-name="Trazado 8339" d="M379.22,109.722a1.927,1.927,0,0,1-.159,1.884,1.989,1.989,0,0,1-1.754.812,1.636,1.636,0,0,1-1.233-.435,3.96,3.96,0,0,1-.768-1.421l-1.1-3.015a1.524,1.524,0,0,1-.348.029h-7.77l-1.073,2.986a3.966,3.966,0,0,1-.768,1.421,1.637,1.637,0,0,1-1.232.435,1.988,1.988,0,0,1-1.754-.812,1.925,1.925,0,0,1-.16-1.884l5.305-14.351a13.515,13.515,0,0,1,1.624-3.363,2.556,2.556,0,0,1,2.145-.927,2.5,2.5,0,0,1,2.131.9,14.682,14.682,0,0,1,1.609,3.45Zm-11.8-5.856h5.45l-2.7-7.422h-.058Z" transform="translate(-284.782 -85.369)" fill="#fff"/>
    <path id="Trazado_8340" data-name="Trazado 8340" d="M468.29,111.92a11.245,11.245,0,0,1-8.117-2.942,10.535,10.535,0,0,1-3.073-7.987,10.467,10.467,0,0,1,3.059-7.958,11.586,11.586,0,0,1,8.335-2.913,11.1,11.1,0,0,1,5.1.9,1.992,1.992,0,0,1,1.218,1.768,1.842,1.842,0,0,1-.493,1.363,1.726,1.726,0,0,1-1.276.493,10.528,10.528,0,0,1-1.623-.3,11.565,11.565,0,0,0-2.639-.3,7.8,7.8,0,0,0-5.334,1.826,6.458,6.458,0,0,0-2.087,5.132,6.806,6.806,0,0,0,1.943,5.146,7.207,7.207,0,0,0,5.218,1.87,6.639,6.639,0,0,0,2.319-.377v-5.509a2.391,2.391,0,0,1,.537-1.594,1.912,1.912,0,0,1,1.551-.638,1.869,1.869,0,0,1,1.536.638,2.433,2.433,0,0,1,.522,1.594v6.436a2.734,2.734,0,0,1-1.827,2.638,13.34,13.34,0,0,1-4.87.724" transform="translate(-360.661 -84.61)" fill="#fff"/>
    <path id="Trazado_8341" data-name="Trazado 8341" d="M565.842,111.78a1.871,1.871,0,0,1-1.537.638,1.915,1.915,0,0,1-1.552-.638,2.394,2.394,0,0,1-.536-1.595V93.226a1.9,1.9,0,0,1,2.145-2.145H569.9a9.653,9.653,0,0,1,6.059,1.71,6.2,6.2,0,0,1,2.2,5.219,7.16,7.16,0,0,1-1.044,4,6.03,6.03,0,0,1-2.783,2.319l2.725,4.407a3.386,3.386,0,0,1,.609,1.8,1.649,1.649,0,0,1-.681,1.348,2.44,2.44,0,0,1-1.551.536,1.506,1.506,0,0,1-1.087-.435,6.486,6.486,0,0,1-.971-1.3l-3.595-5.769h-3.421v5.276a2.435,2.435,0,0,1-.522,1.595m.522-17.134v6.7h4.32a3.542,3.542,0,0,0,2.594-.9,3.259,3.259,0,0,0,.913-2.435,2.968,2.968,0,0,0-1.131-2.479,4.663,4.663,0,0,0-2.957-.884Z" transform="translate(-443.602 -85.369)" fill="#fff"/>
    <path id="Trazado_8342" data-name="Trazado 8342" d="M662.181,111.891a10.281,10.281,0,0,1-7.871-3.1,11.874,11.874,0,0,1,0-15.583,11.577,11.577,0,0,1,15.742,0,11.9,11.9,0,0,1,.015,15.583,10.269,10.269,0,0,1-7.885,3.1m0-3.711a6.086,6.086,0,0,0,4.827-1.928,8.883,8.883,0,0,0-.029-10.48,6.156,6.156,0,0,0-4.856-1.942,5.983,5.983,0,0,0-4.755,1.957,7.669,7.669,0,0,0-1.71,5.233,7.49,7.49,0,0,0,1.754,5.218,6.1,6.1,0,0,0,4.769,1.942" transform="translate(-513.966 -84.61)" fill="#fff"/>
  </g>
</svg>
