<svg id="logo-horizontal-magro" xmlns="http://www.w3.org/2000/svg" width="121.534" height="23.684" viewBox="0 0 121.534 23.684">
  <g id="Grupo_4275" data-name="Grupo 4275" transform="translate(0 0)">
    <path id="Trazado_8328" data-name="Trazado 8328" d="M42.051,109.032a15.881,15.881,0,0,0-8.371-2.4.98.98,0,0,0,0,1.961,13.707,13.707,0,0,1,6.876,1.821,17.762,17.762,0,0,1,1.5-1.385" transform="translate(-27.426 -99.76)" fill="#367a00"/>
    <path id="Trazado_8329" data-name="Trazado 8329" d="M100.653,104.809a16.106,16.106,0,0,0-10.658,4.025c-.309.273-.606.562-.9.86a14.67,14.67,0,0,1,1.527,1.237q.323-.324.665-.626a14.145,14.145,0,0,1,9.362-3.535.98.98,0,0,0,0-1.961" transform="translate(-74.73 -98.229)" fill="#85bd0c"/>
    <path id="Trazado_8330" data-name="Trazado 8330" d="M17.3,150.759a9.187,9.187,0,0,0-11.758-1.52.98.98,0,0,0,1.064,1.647,7.223,7.223,0,0,1,9.825,1.919,14.521,14.521,0,0,1,.869-2.046" transform="translate(-4.275 -134.264)" fill="#85bd0c"/>
    <path id="Trazado_8331" data-name="Trazado 8331" d="M14.973,130.184a12.6,12.6,0,0,0-14.439-2.14.98.98,0,1,0,.891,1.746,10.639,10.639,0,0,1,12.356,1.97,14.657,14.657,0,0,1,1.192-1.577" transform="translate(0 -116.568)" fill="#367a00"/>
    <path id="Trazado_8332" data-name="Trazado 8332" d="M104.709,157.947a.98.98,0,0,1-.98-.98,9.2,9.2,0,0,1,12.3-8.658.98.98,0,0,1-.661,1.846,7.239,7.239,0,0,0-9.674,6.812.98.98,0,0,1-.98.98" transform="translate(-87.001 -134.263)" fill="#85bd0c"/>
    <path id="Trazado_8333" data-name="Trazado 8333" d="M83.61,140.25a.98.98,0,0,1-.98-.98,12.6,12.6,0,0,1,17.152-11.748.98.98,0,0,1-.709,1.828,10.643,10.643,0,0,0-14.482,9.92.98.98,0,0,1-.98.98" transform="translate(-69.305 -116.567)" fill="#367a00"/>
    <path id="Trazado_8334" data-name="Trazado 8334" d="M103.448,68.175l1.286-1.286a1.685,1.685,0,0,0-.47-2.723l-.043-.019a1.683,1.683,0,0,0-2.338,1.561v1.735a3,3,0,0,1,1.565.732" transform="translate(-85.453 -64.005)" fill="#85bd0c"/>
    <path id="Trazado_8335" data-name="Trazado 8335" d="M77.447,68.175a3,3,0,0,1,1.565-.732V65.708a1.683,1.683,0,0,0-2.338-1.561l-.043.019a1.685,1.685,0,0,0-.47,2.723Z" transform="translate(-63.46 -64.005)" fill="#ff9429"/>
    <path id="Trazado_8336" data-name="Trazado 8336" d="M119.031,84.4l-.015-.044a1.6,1.6,0,0,0-2.653-.618l-1.271,1.27a2.994,2.994,0,0,1,.441,1.509h1.978a1.606,1.606,0,0,0,1.52-2.118" transform="translate(-96.533 -80.162)" fill="#ff682c"/>
    <path id="Trazado_8337" data-name="Trazado 8337" d="M62.3,85.01l-1.271-1.271a1.6,1.6,0,0,0-2.653.618l-.015.044a1.606,1.606,0,0,0,1.52,2.119h1.978A2.994,2.994,0,0,1,62.3,85.01" transform="translate(-48.882 -80.162)" fill="#5653d3"/>
    <path id="Trazado_8338" data-name="Trazado 8338" d="M240.744,107.39a1.292,1.292,0,0,1-1.086-.454,1.8,1.8,0,0,1-.355-1.141V93.74a3.328,3.328,0,0,1,.51-1.906,1.7,1.7,0,0,1,1.507-.753,2.079,2.079,0,0,1,1.485.565,6.384,6.384,0,0,1,1.241,2.139l3.745,9.2h.045l3.811-9.24a6.37,6.37,0,0,1,1.23-2.105,2.062,2.062,0,0,1,1.473-.554,1.654,1.654,0,0,1,1.485.742,3.433,3.433,0,0,1,.488,1.917v12.055a1.8,1.8,0,0,1-.355,1.141,1.292,1.292,0,0,1-1.086.454,1.266,1.266,0,0,1-1.064-.454,1.8,1.8,0,0,1-.355-1.141V96.51h-.044l-3.568,8.376a8.767,8.767,0,0,1-.986,1.906,1.308,1.308,0,0,1-1.053.6,1.284,1.284,0,0,1-1.041-.587,9.926,9.926,0,0,1-1.019-1.917l-3.546-8.376h-.044v9.285a1.8,1.8,0,0,1-.355,1.141,1.267,1.267,0,0,1-1.063.454" transform="translate(-200.712 -86.715)" fill="#012d05"/>
    <path id="Trazado_8339" data-name="Trazado 8339" d="M374.91,105.33a1.473,1.473,0,0,1-.122,1.44,1.521,1.521,0,0,1-1.341.621,1.251,1.251,0,0,1-.942-.332,3.026,3.026,0,0,1-.587-1.086l-.842-2.3a1.165,1.165,0,0,1-.266.022h-5.939l-.82,2.282a3.032,3.032,0,0,1-.587,1.086,1.251,1.251,0,0,1-.942.332,1.52,1.52,0,0,1-1.341-.621,1.471,1.471,0,0,1-.122-1.44l4.055-10.969a10.33,10.33,0,0,1,1.241-2.57,1.953,1.953,0,0,1,1.64-.709,1.914,1.914,0,0,1,1.629.687,11.223,11.223,0,0,1,1.23,2.637Zm-9.019-4.476h4.166L368,95.18h-.044Z" transform="translate(-302.725 -86.715)" fill="#012d05"/>
    <path id="Trazado_8340" data-name="Trazado 8340" d="M465.653,106.783a8.6,8.6,0,0,1-6.2-2.249,9.094,9.094,0,0,1-.011-12.188,8.856,8.856,0,0,1,6.371-2.227,8.484,8.484,0,0,1,3.9.687,1.522,1.522,0,0,1,.931,1.352,1.408,1.408,0,0,1-.377,1.042,1.319,1.319,0,0,1-.975.377,8.045,8.045,0,0,1-1.241-.232,8.841,8.841,0,0,0-2.017-.233,5.966,5.966,0,0,0-4.077,1.4,4.936,4.936,0,0,0-1.6,3.922,5.2,5.2,0,0,0,1.485,3.933,5.509,5.509,0,0,0,3.989,1.429,5.074,5.074,0,0,0,1.773-.288V99.293a1.827,1.827,0,0,1,.41-1.219,1.461,1.461,0,0,1,1.186-.488,1.429,1.429,0,0,1,1.174.488,1.86,1.86,0,0,1,.4,1.219v4.92a2.09,2.09,0,0,1-1.4,2.017,10.2,10.2,0,0,1-3.723.554" transform="translate(-383.385 -85.908)" fill="#012d05"/>
    <path id="Trazado_8341" data-name="Trazado 8341" d="M564.988,106.9a1.43,1.43,0,0,1-1.175.487,1.464,1.464,0,0,1-1.186-.487,1.829,1.829,0,0,1-.41-1.219V92.721a1.449,1.449,0,0,1,1.64-1.64h4.233a7.378,7.378,0,0,1,4.631,1.307,4.736,4.736,0,0,1,1.684,3.989,5.473,5.473,0,0,1-.8,3.058,4.609,4.609,0,0,1-2.127,1.773l2.083,3.368a2.587,2.587,0,0,1,.465,1.374,1.26,1.26,0,0,1-.521,1.03,1.865,1.865,0,0,1-1.186.41,1.151,1.151,0,0,1-.831-.332,4.957,4.957,0,0,1-.742-1L568,101.651h-2.615v4.033a1.862,1.862,0,0,1-.4,1.219m.4-13.1v5.119h3.3a2.708,2.708,0,0,0,1.983-.687,2.491,2.491,0,0,0,.7-1.861,2.269,2.269,0,0,0-.864-1.895,3.564,3.564,0,0,0-2.26-.676Z" transform="translate(-471.552 -86.715)" fill="#012d05"/>
    <path id="Trazado_8342" data-name="Trazado 8342" d="M659.64,106.761a7.858,7.858,0,0,1-6.017-2.371,9.076,9.076,0,0,1,0-11.911,8.849,8.849,0,0,1,12.033,0,9.093,9.093,0,0,1,.011,11.911,7.849,7.849,0,0,1-6.027,2.371m0-2.837a4.652,4.652,0,0,0,3.689-1.473,6.79,6.79,0,0,0-.022-8.011,4.705,4.705,0,0,0-3.712-1.485,4.573,4.573,0,0,0-3.634,1.5,5.862,5.862,0,0,0-1.307,4,5.725,5.725,0,0,0,1.341,3.989,4.665,4.665,0,0,0,3.645,1.485" transform="translate(-546.349 -85.908)" fill="#012d05"/>
  </g>
</svg>
