<svg xmlns="http://www.w3.org/2000/svg" xmlns:xlink="http://www.w3.org/1999/xlink" width="306" height="296" viewBox="0 0 306 296">
  <defs>
    <clipPath id="clip-path">
      <rect id="Rectángulo_3358" data-name="Rectángulo 3358" width="306" height="296" transform="translate(-4118 -1300)" fill="#5653d3" stroke="#707070" stroke-width="1"/>
    </clipPath>
  </defs>
  <g id="formas-blancas-1" transform="translate(4118 1300)" clip-path="url(#clip-path)">
    <g id="Grupo_9756" data-name="Grupo 9756" transform="translate(-3646.874 -1224.898) rotate(150)" opacity="0.31">
      <path id="Trazado_13050" data-name="Trazado 13050" d="M37.61,390.292A37.607,37.607,0,0,1,0,352.689C0,158.214,158.208,0,352.676,0A351.7,351.7,0,0,1,471.629,20.574a37.607,37.607,0,0,1-25.361,70.809,276.645,276.645,0,0,0-93.591-16.17c-152.993,0-277.463,124.477-277.463,277.476a37.61,37.61,0,0,1-37.6,37.6" transform="matrix(0.995, -0.105, 0.105, 0.995, 0, 51.905)" fill="none" stroke="#fff" stroke-width="2"/>
    </g>
  </g>
</svg>
