<svg xmlns="http://www.w3.org/2000/svg" xmlns:xlink="http://www.w3.org/1999/xlink" width="300" height="300" viewBox="0 0 300 300">
  <defs>
    <clipPath id="clip-path">
      <rect id="Rectángulo_3328" data-name="Rectángulo 3328" width="300" height="300" transform="translate(-1023 -8998)" fill="#fff" stroke="#707070" stroke-width="1"/>
    </clipPath>
  </defs>
  <g id="forma-contacto-1" transform="translate(1023 8998)" clip-path="url(#clip-path)">
    <g id="Grupo_9728" data-name="Grupo 9728" transform="translate(-910 -8952)">
      <path id="Trazado_12534" data-name="Trazado 12534" d="M33.556,0A33.554,33.554,0,0,0,0,33.55C0,207.063,141.155,348.224,314.663,348.224a313.789,313.789,0,0,0,106.13-18.356,33.553,33.553,0,0,0-22.627-63.176,246.827,246.827,0,0,1-83.5,14.427c-136.5,0-247.557-111.06-247.557-247.567A33.556,33.556,0,0,0,33.556,0" transform="translate(183 249.079) rotate(180)" fill="none" stroke="#f7f3ea" stroke-width="1.5" opacity="0.4"/>
      <path id="Trazado_12619" data-name="Trazado 12619" d="M19.7,0A19.123,19.123,0,0,0,.578,19.121c-12.88,162.787,192.134,265.461,350.166,275.9,20.76,0,10.885-29.67-5.464-29.67C235.24,263.8,31.423,160.221,38.823,19.121A19.124,19.124,0,0,0,19.7,0" transform="translate(69.194 203.55) rotate(172)" fill="none" stroke="#f7f3ea" stroke-width="1.5" opacity="0.4"/>
    </g>
  </g>
</svg>
