<svg xmlns="http://www.w3.org/2000/svg" xmlns:xlink="http://www.w3.org/1999/xlink" width="300" height="300" viewBox="0 0 300 300">
  <defs>
    <clipPath id="clip-path">
      <rect id="Rectángulo_3240" data-name="Rectángulo 3240" width="300" height="300" transform="translate(0 441)" fill="#fff" stroke="#707070" stroke-width="1"/>
    </clipPath>
  </defs>
  <g id="formas-home-1" transform="translate(0 -441)" clip-path="url(#clip-path)">
    <g id="Grupo_9632" data-name="Grupo 9632" transform="translate(-456.598 198.074)">
      <path id="Trazado_12870" data-name="Trazado 12870" d="M25.98,269.611A25.979,25.979,0,0,1,0,243.635C0,109.293,109.289,0,243.626,0A242.952,242.952,0,0,1,325.8,14.212a25.978,25.978,0,0,1-17.519,48.914,191.1,191.1,0,0,0-64.652-11.17c-105.686,0-191.669,85.987-191.669,191.678A25.981,25.981,0,0,1,25.98,269.611" transform="translate(557.418 505.755) rotate(-158)" fill="#85bd0c"/>
      <path id="Trazado_12871" data-name="Trazado 12871" d="M34.013,471.082A34.016,34.016,0,0,1,0,437.069C0,196.067,196.061,0,437.057,0A435.173,435.173,0,0,1,595.1,29.464a34.015,34.015,0,1,1-24.614,63.422A367.445,367.445,0,0,0,437.057,68.032c-203.48,0-369.03,165.556-369.03,369.037a34.015,34.015,0,0,1-34.013,34.013" transform="matrix(-0.883, -0.469, 0.469, -0.883, 544.622, 705.521)" fill="#ff682c"/>
    </g>
  </g>
</svg>
